# xmcd
#
# Track frame offsets: 
#        150
#        17853
#        32667
#        52211
#        76354
#        92913
#        108452
#        121916
#        145915
#        168716
#        184524
#        194631
#        205387
#        227641
#        249062
#        275611
#        293582
#
# Disc length: 4214 seconds
#
# Revision: 2
# Processed by: cddbd v1.5.2PL0 Copyright (c) Steve Scherf et al.
# Submitted via: ExactAudioCopy v1.0b3
#
DISCID=f6107411
DTITLE=Uri Caine - Bedrock [Shelf-life]
DYEAR=2005
DGENRE=Jazz
TTITLE0=SteakJacket prelude
TTITLE1=SteakJacket
TTITLE2=Defenestration
TTITLE3=Wolfowitz in sheep's clothing
TTITLE4=Blakey
TTITLE5=On the shelf
TTITLE6=Darker bionic cue
TTITLE7=Strom's Theremin
TTITLE8=Oder
TTITLE9=Murray
TTITLE10=bE 100se
TTITLE11=Watch out!
TTITLE12=Bauweltklogge
TTITLE13=Shish Kabab Franklin
TTITLE14=Interruptus
TTITLE15=Hello
TTITLE16=Sweat
EXTD=YEAR: 2005
EXTT0=
EXTT1=
EXTT2=
EXTT3=
EXTT4=
EXTT5=
EXTT6=
EXTT7=
EXTT8=
EXTT9=
EXTT10=
EXTT11=
EXTT12=
EXTT13=
EXTT14=
EXTT15=
EXTT16=
PLAYORDER=
